<mxfile host="app.diagrams.net" modified="2024-04-20T12:54:02.984Z" agent="Mozilla/5.0 (Windows NT 10.0; Win64; x64) AppleWebKit/537.36 (KHTML, like Gecko) Chrome/124.0.0.0 Safari/537.36" etag="P_DZOITlu7wVZlq92vRm" version="23.1.2" type="google">
  <diagram name="Page-1" id="6b_Ryw-GycvNN-zTuyfP">
    <mxGraphModel grid="1" page="1" gridSize="10" guides="1" tooltips="1" connect="1" arrows="1" fold="1" pageScale="1" pageWidth="827" pageHeight="1169" math="0" shadow="0">
      <root>
        <mxCell id="0" />
        <mxCell id="1" parent="0" />
        <mxCell id="JcavJ1P70RFIdzrL53cH-1" value="Pico W" style="rounded=0;whiteSpace=wrap;html=1;" vertex="1" parent="1">
          <mxGeometry x="310" y="180" width="90" height="250" as="geometry" />
        </mxCell>
        <mxCell id="JcavJ1P70RFIdzrL53cH-2" value="" style="endArrow=none;html=1;rounded=0;entryX=0;entryY=0.75;entryDx=0;entryDy=0;exitX=0;exitY=0.5;exitDx=0;exitDy=0;exitPerimeter=0;" edge="1" parent="1" source="JcavJ1P70RFIdzrL53cH-4" target="JcavJ1P70RFIdzrL53cH-1">
          <mxGeometry width="50" height="50" relative="1" as="geometry">
            <mxPoint x="250" y="410" as="sourcePoint" />
            <mxPoint x="290" y="380" as="targetPoint" />
            <Array as="points">
              <mxPoint x="230" y="368" />
            </Array>
          </mxGeometry>
        </mxCell>
        <mxCell id="JcavJ1P70RFIdzrL53cH-4" value="1k" style="pointerEvents=1;verticalLabelPosition=bottom;shadow=0;dashed=0;align=center;html=1;verticalAlign=top;shape=mxgraph.electrical.resistors.resistor_1;rotation=90;" vertex="1" parent="1">
          <mxGeometry x="180" y="500" width="100" height="20" as="geometry" />
        </mxCell>
        <mxCell id="JcavJ1P70RFIdzrL53cH-8" value="Closed LED" style="verticalLabelPosition=bottom;shadow=0;dashed=0;align=center;html=1;verticalAlign=top;shape=mxgraph.electrical.opto_electronics.led_1;pointerEvents=1;rotation=90;" vertex="1" parent="1">
          <mxGeometry x="170" y="650" width="100" height="65" as="geometry" />
        </mxCell>
        <mxCell id="JcavJ1P70RFIdzrL53cH-10" style="edgeStyle=orthogonalEdgeStyle;rounded=0;orthogonalLoop=1;jettySize=auto;html=1;exitX=1;exitY=0.5;exitDx=0;exitDy=0;exitPerimeter=0;entryX=0;entryY=0.54;entryDx=0;entryDy=0;entryPerimeter=0;endArrow=none;endFill=0;" edge="1" parent="1" source="JcavJ1P70RFIdzrL53cH-4" target="JcavJ1P70RFIdzrL53cH-8">
          <mxGeometry relative="1" as="geometry" />
        </mxCell>
        <mxCell id="JcavJ1P70RFIdzrL53cH-14" style="edgeStyle=orthogonalEdgeStyle;rounded=0;orthogonalLoop=1;jettySize=auto;html=1;exitX=0;exitY=0.5;exitDx=0;exitDy=0;exitPerimeter=0;entryX=1;entryY=0.75;entryDx=0;entryDy=0;endArrow=none;endFill=0;" edge="1" parent="1" source="JcavJ1P70RFIdzrL53cH-11" target="JcavJ1P70RFIdzrL53cH-1">
          <mxGeometry relative="1" as="geometry" />
        </mxCell>
        <mxCell id="JcavJ1P70RFIdzrL53cH-11" value="1k" style="pointerEvents=1;verticalLabelPosition=bottom;shadow=0;dashed=0;align=center;html=1;verticalAlign=top;shape=mxgraph.electrical.resistors.resistor_1;rotation=90;" vertex="1" parent="1">
          <mxGeometry x="440" y="490" width="100" height="20" as="geometry" />
        </mxCell>
        <mxCell id="JcavJ1P70RFIdzrL53cH-12" value="Open LED" style="verticalLabelPosition=bottom;shadow=0;dashed=0;align=center;html=1;verticalAlign=top;shape=mxgraph.electrical.opto_electronics.led_1;pointerEvents=1;rotation=90;" vertex="1" parent="1">
          <mxGeometry x="430" y="650" width="100" height="65" as="geometry" />
        </mxCell>
        <mxCell id="JcavJ1P70RFIdzrL53cH-15" value="" style="pointerEvents=1;verticalLabelPosition=bottom;shadow=0;dashed=0;align=center;html=1;verticalAlign=top;shape=mxgraph.electrical.signal_sources.signal_ground;" vertex="1" parent="1">
          <mxGeometry x="332.5" y="860" width="45" height="30" as="geometry" />
        </mxCell>
        <mxCell id="JcavJ1P70RFIdzrL53cH-16" style="edgeStyle=orthogonalEdgeStyle;rounded=0;orthogonalLoop=1;jettySize=auto;html=1;exitX=1;exitY=0.54;exitDx=0;exitDy=0;exitPerimeter=0;entryX=0.5;entryY=0;entryDx=0;entryDy=0;entryPerimeter=0;endArrow=none;endFill=0;" edge="1" parent="1" source="JcavJ1P70RFIdzrL53cH-8" target="JcavJ1P70RFIdzrL53cH-15">
          <mxGeometry relative="1" as="geometry">
            <Array as="points">
              <mxPoint x="217" y="800" />
              <mxPoint x="355" y="800" />
            </Array>
          </mxGeometry>
        </mxCell>
        <mxCell id="JcavJ1P70RFIdzrL53cH-17" style="edgeStyle=orthogonalEdgeStyle;rounded=0;orthogonalLoop=1;jettySize=auto;html=1;exitX=1;exitY=0.54;exitDx=0;exitDy=0;exitPerimeter=0;entryX=0.5;entryY=0;entryDx=0;entryDy=0;entryPerimeter=0;endArrow=none;endFill=0;" edge="1" parent="1" source="JcavJ1P70RFIdzrL53cH-12" target="JcavJ1P70RFIdzrL53cH-15">
          <mxGeometry relative="1" as="geometry">
            <Array as="points">
              <mxPoint x="477" y="800" />
              <mxPoint x="355" y="800" />
            </Array>
          </mxGeometry>
        </mxCell>
        <mxCell id="JcavJ1P70RFIdzrL53cH-18" style="edgeStyle=orthogonalEdgeStyle;rounded=0;orthogonalLoop=1;jettySize=auto;html=1;exitX=1;exitY=0.5;exitDx=0;exitDy=0;exitPerimeter=0;entryX=0;entryY=0.54;entryDx=0;entryDy=0;entryPerimeter=0;endArrow=none;endFill=0;" edge="1" parent="1" source="JcavJ1P70RFIdzrL53cH-11" target="JcavJ1P70RFIdzrL53cH-12">
          <mxGeometry relative="1" as="geometry" />
        </mxCell>
        <mxCell id="JcavJ1P70RFIdzrL53cH-19" value="Closed Button" style="html=1;shape=mxgraph.electrical.electro-mechanical.pushbutton;aspect=fixed;elSwitchState=off;rotation=90;labelPosition=center;verticalLabelPosition=top;align=center;verticalAlign=bottom;" vertex="1" parent="1">
          <mxGeometry x="550" y="490" width="75" height="20" as="geometry" />
        </mxCell>
        <mxCell id="JcavJ1P70RFIdzrL53cH-20" value="Open Button" style="html=1;shape=mxgraph.electrical.electro-mechanical.pushbutton;aspect=fixed;elSwitchState=off;rotation=90;verticalAlign=bottom;labelPosition=center;verticalLabelPosition=top;align=center;" vertex="1" parent="1">
          <mxGeometry x="620" y="490" width="75" height="20" as="geometry" />
        </mxCell>
        <mxCell id="JcavJ1P70RFIdzrL53cH-21" style="edgeStyle=orthogonalEdgeStyle;rounded=0;orthogonalLoop=1;jettySize=auto;html=1;exitX=1;exitY=0.5;exitDx=0;exitDy=0;endArrow=none;endFill=0;entryX=0;entryY=0.8;entryDx=0;entryDy=0;" edge="1" parent="1" source="JcavJ1P70RFIdzrL53cH-1" target="JcavJ1P70RFIdzrL53cH-19">
          <mxGeometry relative="1" as="geometry">
            <mxPoint x="610" y="450" as="targetPoint" />
          </mxGeometry>
        </mxCell>
        <mxCell id="JcavJ1P70RFIdzrL53cH-22" style="edgeStyle=orthogonalEdgeStyle;rounded=0;orthogonalLoop=1;jettySize=auto;html=1;exitX=1;exitY=0.25;exitDx=0;exitDy=0;endArrow=none;endFill=0;entryX=0;entryY=0.8;entryDx=0;entryDy=0;" edge="1" parent="1" source="JcavJ1P70RFIdzrL53cH-1" target="JcavJ1P70RFIdzrL53cH-20">
          <mxGeometry relative="1" as="geometry">
            <mxPoint x="680" y="450" as="targetPoint" />
          </mxGeometry>
        </mxCell>
        <mxCell id="JcavJ1P70RFIdzrL53cH-23" style="edgeStyle=orthogonalEdgeStyle;rounded=0;orthogonalLoop=1;jettySize=auto;html=1;exitX=1;exitY=0.8;exitDx=0;exitDy=0;entryX=0.5;entryY=0;entryDx=0;entryDy=0;entryPerimeter=0;" edge="1" parent="1" source="JcavJ1P70RFIdzrL53cH-19" target="JcavJ1P70RFIdzrL53cH-15">
          <mxGeometry relative="1" as="geometry">
            <Array as="points">
              <mxPoint x="582" y="800" />
              <mxPoint x="355" y="800" />
            </Array>
          </mxGeometry>
        </mxCell>
        <mxCell id="JcavJ1P70RFIdzrL53cH-24" style="edgeStyle=orthogonalEdgeStyle;rounded=0;orthogonalLoop=1;jettySize=auto;html=1;exitX=1;exitY=0.8;exitDx=0;exitDy=0;entryX=0.5;entryY=0;entryDx=0;entryDy=0;entryPerimeter=0;" edge="1" parent="1" source="JcavJ1P70RFIdzrL53cH-20" target="JcavJ1P70RFIdzrL53cH-15">
          <mxGeometry relative="1" as="geometry">
            <Array as="points">
              <mxPoint x="652" y="800" />
              <mxPoint x="355" y="800" />
            </Array>
          </mxGeometry>
        </mxCell>
      </root>
    </mxGraphModel>
  </diagram>
</mxfile>
